<svg width="27" height="25" viewBox="0 0 27 25" fill="none" xmlns="http://www.w3.org/2000/svg">
<path d="M19.8682 16.5949L21.3928 24.7627L13.2491 20.6305L5.22628 25L6.63664 15.9754L0 9.69684L7.79877 8.44684L9.02021 8.24912L12.9416 0L17.1046 8.13049L26.1621 9.308L19.7166 15.7821L19.8682 16.5949Z" fill="#F7C93F"/>
<path d="M18.1283 15.2922L19.4003 22.1024L13.2228 18.9697L7.13753 22.2847L8.20739 15.4394L3.17664 10.6767L10.0176 9.57824L12.9899 3.32165L16.149 9.48817L23.0185 10.3823L18.1283 15.2922Z" fill="#F7E33F"/>
<path opacity="0.2" d="M19.7165 15.7821L19.8681 16.5949C19.38 16.6674 18.8874 16.7056 18.394 16.7091H18.2995C15.8753 16.7127 13.5205 15.8993 11.6153 14.4002C9.71013 12.9011 8.36557 10.8039 7.79865 8.44684L9.02009 8.24912L12.9414 0L17.1044 8.12829L26.162 9.3058L19.7165 15.7821Z" fill="white"/>
</svg>
