<svg width="50" height="45" viewBox="0 0 50 45" fill="none" xmlns="http://www.w3.org/2000/svg">
<circle cx="22.5" cy="22.5" r="21.5" fill="#3E87FF" stroke="#3E87FF" stroke-width="2"/>
<path d="M32 19.1851C31.9808 20.0778 21.9981 32.0014 21.9981 32.0014C21.9981 32.0014 15.8491 25.0423 12 19.1851H32Z" fill="#FF3D12"/>
<path d="M27.8514 14H22H16.1486L12 19.1853H22H32L27.8514 14Z" fill="#FF7C3B"/>
<path opacity="0.2" d="M18.0222 19.1853L21.9999 14L25.7454 19.1853H18.0222Z" fill="white"/>
<path opacity="0.2" d="M18.0222 19.1851L21.998 32.0014L25.7454 19.1851H18.0222Z" fill="white"/>
<path opacity="0.2" d="M16.1486 14L18.0223 19.1853H12L16.1486 14Z" fill="white"/>
<path opacity="0.2" d="M27.8515 14L25.7455 19.1853H32L27.8515 14Z" fill="white"/>
<circle cx="40" cy="10" r="10" fill="#0045B5"/>
<path d="M39.6738 11.4141C39.6826 11.8623 39.709 12.3193 39.709 12.7764C39.709 12.9873 39.6914 13.1982 39.6914 13.4092C39.6914 13.8047 39.7178 14.2617 39.8408 14.6045C39.9639 14.9385 40.166 15.1318 40.5352 15.1318C41.0801 15.1318 41.502 14.71 41.502 14.1562C41.502 13.2334 41.4844 12.3018 41.458 11.3789L41.4492 11.0889H41.7393C42.1348 11.0889 42.5391 11.1064 42.9434 11.1152C43.2246 11.124 43.5059 11.1416 43.7783 11.1768C44.042 11.2031 44.3145 11.2383 44.5781 11.2383C45 11.2383 45.2021 11.124 45.3691 10.7461C45.4219 10.6143 45.457 10.4824 45.457 10.3506C45.457 9.98145 45.2637 9.7002 44.9297 9.54199C44.666 9.41016 44.1914 9.33984 43.6553 9.31348C43.1279 9.28711 42.5918 9.2959 42.2578 9.2959H41.4053L41.3965 9.02344C41.3877 8.75977 41.3789 8.4873 41.3789 8.22363C41.3789 7.64355 41.4756 7.07227 41.4756 6.50098C41.4756 5.99121 41.3262 5.73633 40.8604 5.56934C40.7637 5.52539 40.6582 5.50781 40.5615 5.50781C40.1836 5.50781 39.8936 5.78906 39.7617 6.20215C39.6035 6.71191 39.5859 7.37109 39.5859 7.95996C39.5859 8.3291 39.5947 8.68945 39.6123 9.05859L39.6211 9.33984L39.3398 9.34863C38.54 9.36621 37.7402 9.39258 36.9404 9.42773C36.1143 9.46289 35.6045 9.67383 35.6045 10.4121C35.6045 11.0537 36.0527 11.2471 36.7998 11.2471H37.002L39.3926 11.1328L39.6738 11.124V11.4141Z" fill="white"/>
</svg>
