<svg width="50" height="45" viewBox="0 0 50 45" fill="none" xmlns="http://www.w3.org/2000/svg">
<circle cx="22.5" cy="22.5" r="21.5" fill="#3E87FF" stroke="#3E87FF" stroke-width="2"/>
<g clip-path="url(#clip0_192_237)">
<path d="M23.7646 35.1858C23.7644 35.4264 23.6928 35.6615 23.5589 35.8614C23.425 36.0612 23.2349 36.2169 23.0125 36.3088C22.7902 36.4006 22.5456 36.4244 22.3097 36.3772C22.0738 36.33 21.8572 36.214 21.6873 36.0437C21.5173 35.8734 21.4017 35.6565 21.355 35.4205C21.3083 35.1845 21.3327 34.94 21.425 34.7178C21.5173 34.4956 21.6734 34.3058 21.8736 34.1724C22.0738 34.039 22.309 33.9679 22.5496 33.9681C22.7093 33.9683 22.8674 33.9999 23.015 34.0612C23.1625 34.1225 23.2965 34.2122 23.4093 34.3253C23.5221 34.4384 23.6116 34.5726 23.6725 34.7202C23.7335 34.8679 23.7648 35.0261 23.7646 35.1858Z" fill="#C6C6C6"/>
<path d="M18.4142 33.3541V34.0385C18.4142 34.6721 19.1169 35.1858 19.9786 35.1858H24.9249C25.7932 35.1858 26.4894 34.6721 26.4894 34.0385V33.3541H18.4142Z" fill="#C6C6C6"/>
<path d="M18.3881 29.4925C18.3881 23.4746 14.7273 22.5059 14.7273 17.5909C14.7273 15.5295 15.5462 13.5524 17.0039 12.0948C18.4615 10.6371 20.4386 9.81818 22.5 9.81818C24.5615 9.81818 26.5385 10.6371 27.9962 12.0948C29.4538 13.5524 30.2727 15.5295 30.2727 17.5909C30.2727 21.2961 26.5376 24.1525 26.5376 29.6098L18.3881 29.4925Z" fill="#FFDE00"/>
<path d="M19.1821 24.7347C18.7206 21.5145 17.4507 17.5552 18.5524 14.468C19.521 11.7563 21.2654 10.7394 25.0266 10.2426C23.8562 9.84036 22.6067 9.72335 21.382 9.90137C20.1573 10.0794 18.9927 10.5473 17.9853 11.2661C16.9779 11.985 16.1567 12.934 15.59 14.0342C15.0233 15.1344 14.7275 16.3541 14.7273 17.5917C14.7273 22.5067 18.3881 23.4753 18.3881 29.4933L23.1532 29.5884C22.6799 29.1686 19.7453 28.6576 19.1821 24.7347Z" fill="#FDC500"/>
<g style="mix-blend-mode:soft-light">
<path d="M29.4006 17.3484C29.4006 19.7694 27.4203 24.1525 25.5755 24.1525C23.7308 24.1525 22.7178 19.7694 22.7178 17.3484C22.7178 14.9274 23.5365 11.513 25.3813 11.513C27.226 11.513 29.4006 14.9287 29.4006 17.3484Z" fill="white"/>
</g>
<path d="M17.924 29.9579C17.9238 30.0366 17.9392 30.1146 17.9692 30.1873C17.9992 30.2601 18.0432 30.3262 18.0988 30.3819C18.1544 30.4376 18.2204 30.4818 18.2931 30.5119C18.3658 30.5421 18.4437 30.5576 18.5224 30.5576H26.4751C26.6341 30.5576 26.7866 30.4944 26.8991 30.382C27.0116 30.2695 27.0748 30.117 27.0748 29.9579C27.0748 29.7989 27.0116 29.6463 26.8991 29.5338C26.7866 29.4214 26.6341 29.3582 26.4751 29.3582H18.5224C18.4437 29.3582 18.3658 29.3737 18.2931 29.4039C18.2204 29.434 18.1544 29.4782 18.0988 29.5339C18.0432 29.5896 17.9992 29.6558 17.9692 29.7285C17.9392 29.8013 17.9238 29.8792 17.924 29.9579Z" fill="#C6C6C6"/>
<g style="mix-blend-mode:multiply">
<path d="M17.9318 30.0361C17.9504 30.1798 18.0206 30.3119 18.1292 30.4078C18.2378 30.5037 18.3775 30.5569 18.5224 30.5576H26.475C26.6202 30.5572 26.7602 30.5041 26.8691 30.4082C26.978 30.3123 27.0483 30.18 27.0669 30.0361H17.9318Z" fill="#C6C6C6"/>
</g>
<g style="mix-blend-mode:soft-light">
<path d="M26.5676 29.662C26.5676 29.6825 26.5636 29.7029 26.5557 29.7218C26.5478 29.7408 26.5363 29.7581 26.5218 29.7726C26.5073 29.7871 26.49 29.7986 26.471 29.8065C26.4521 29.8144 26.4317 29.8184 26.4112 29.8184H18.6867C18.6451 29.8184 18.6051 29.802 18.5756 29.7727C18.546 29.7434 18.5293 29.7036 18.5289 29.662C18.5289 29.6201 18.5456 29.58 18.5751 29.5504C18.6047 29.5208 18.6448 29.5042 18.6867 29.5042H26.4112C26.4528 29.5046 26.4926 29.5213 26.5219 29.5509C26.5512 29.5804 26.5676 29.6204 26.5676 29.662Z" fill="white"/>
</g>
<path d="M26.4776 30.5576H18.4142V32.9369H26.4776V30.5576Z" fill="#C6C6C6"/>
<path d="M17.9397 31.1821C17.9312 31.2604 17.9382 31.3395 17.9603 31.4151C17.9825 31.4906 18.0193 31.561 18.0687 31.6223C18.1181 31.6836 18.1792 31.7345 18.2483 31.7722C18.3174 31.8098 18.3933 31.8335 18.4716 31.8418L26.3799 32.697C26.4581 32.7055 26.5373 32.6985 26.6128 32.6763C26.6884 32.6542 26.7588 32.6173 26.8201 32.5679C26.8814 32.5185 26.9323 32.4575 26.97 32.3884C27.0076 32.3192 27.0313 32.2434 27.0396 32.1651C27.0481 32.0868 27.041 32.0077 27.0189 31.9321C26.9967 31.8566 26.9599 31.7862 26.9105 31.7249C26.8611 31.6636 26.8001 31.6127 26.7309 31.575C26.6618 31.5373 26.5859 31.5137 26.5076 31.5054L18.6006 30.6502C18.4425 30.6334 18.2842 30.6799 18.1603 30.7796C18.0364 30.8793 17.957 31.024 17.9397 31.1821Z" fill="#C6C6C6"/>
<g style="mix-blend-mode:multiply">
<path d="M17.9396 31.2616C17.9426 31.4065 17.9983 31.5453 18.0962 31.652C18.1941 31.7588 18.3275 31.8263 18.4716 31.8418L26.3799 32.697C26.524 32.7123 26.6688 32.6746 26.7871 32.5908C26.9054 32.5071 26.9892 32.3831 27.0226 32.242L17.9396 31.2616Z" fill="#C6C6C6"/>
</g>
<g style="mix-blend-mode:soft-light">
<path d="M26.5663 31.8157C26.5641 31.8363 26.558 31.8563 26.5481 31.8745C26.5382 31.8927 26.5248 31.9087 26.5087 31.9217C26.4926 31.9347 26.474 31.9443 26.4541 31.9501C26.4343 31.9558 26.4134 31.9576 26.3929 31.9552L18.7127 31.1261C18.6714 31.1211 18.6337 31.1002 18.6076 31.0678C18.5815 31.0354 18.5692 30.9941 18.5732 30.9527C18.5747 30.9316 18.5803 30.9111 18.5899 30.8923C18.5995 30.8735 18.6128 30.8569 18.629 30.8433C18.6452 30.8298 18.664 30.8197 18.6842 30.8136C18.7044 30.8076 18.7256 30.8056 18.7466 30.808L26.4268 31.6371C26.4681 31.642 26.5058 31.6629 26.5319 31.6954C26.558 31.7278 26.5703 31.7691 26.5663 31.8105V31.8157Z" fill="white"/>
</g>
<path d="M17.924 33.3632C17.9238 33.4419 17.9392 33.5199 17.9692 33.5926C17.9992 33.6654 18.0432 33.7315 18.0988 33.7872C18.1544 33.8429 18.2204 33.8871 18.2931 33.9172C18.3658 33.9474 18.4437 33.9629 18.5224 33.9629H26.4751C26.6341 33.9629 26.7866 33.8997 26.8991 33.7873C27.0116 33.6748 27.0748 33.5223 27.0748 33.3632C27.0748 33.2042 27.0116 33.0516 26.8991 32.9391C26.7866 32.8267 26.6341 32.7635 26.4751 32.7635H18.5224C18.4437 32.7635 18.3658 32.779 18.2931 32.8092C18.2204 32.8393 18.1544 32.8835 18.0988 32.9392C18.0432 32.9949 17.9992 33.061 17.9692 33.1338C17.9392 33.2066 17.9238 33.2845 17.924 33.3632Z" fill="#C6C6C6"/>
<g style="mix-blend-mode:multiply">
<path d="M17.9318 33.4414C17.9504 33.5851 18.0206 33.7172 18.1292 33.8131C18.2378 33.909 18.3775 33.9622 18.5224 33.9629H26.475C26.6202 33.9625 26.7602 33.9094 26.8691 33.8135C26.978 33.7176 27.0483 33.5853 27.0669 33.4414H17.9318Z" fill="#C6C6C6"/>
</g>
<g style="mix-blend-mode:soft-light">
<path d="M26.5676 33.066C26.5676 33.1076 26.5512 33.1475 26.5219 33.1771C26.4926 33.2066 26.4528 33.2234 26.4112 33.2237H18.6867C18.6448 33.2237 18.6047 33.2071 18.5751 33.1775C18.5456 33.1479 18.5289 33.1078 18.5289 33.066C18.5293 33.0244 18.546 32.9846 18.5756 32.9553C18.6051 32.926 18.6451 32.9095 18.6867 32.9095H26.4112C26.4527 32.9095 26.4925 32.926 26.5218 32.9554C26.5511 32.9847 26.5676 33.0245 26.5676 33.066Z" fill="white"/>
</g>
</g>
<circle cx="40" cy="10" r="10" fill="#0045B5"/>
<path d="M39.6738 11.4141C39.6826 11.8623 39.709 12.3193 39.709 12.7764C39.709 12.9873 39.6914 13.1982 39.6914 13.4092C39.6914 13.8047 39.7178 14.2617 39.8408 14.6045C39.9639 14.9385 40.166 15.1318 40.5352 15.1318C41.0801 15.1318 41.502 14.71 41.502 14.1562C41.502 13.2334 41.4844 12.3018 41.458 11.3789L41.4492 11.0889H41.7393C42.1348 11.0889 42.5391 11.1064 42.9434 11.1152C43.2246 11.124 43.5059 11.1416 43.7783 11.1768C44.042 11.2031 44.3145 11.2383 44.5781 11.2383C45 11.2383 45.2021 11.124 45.3691 10.7461C45.4219 10.6143 45.457 10.4824 45.457 10.3506C45.457 9.98145 45.2637 9.7002 44.9297 9.54199C44.666 9.41016 44.1914 9.33984 43.6553 9.31348C43.1279 9.28711 42.5918 9.2959 42.2578 9.2959H41.4053L41.3965 9.02344C41.3877 8.75977 41.3789 8.4873 41.3789 8.22363C41.3789 7.64355 41.4756 7.07227 41.4756 6.50098C41.4756 5.99121 41.3262 5.73633 40.8604 5.56934C40.7637 5.52539 40.6582 5.50781 40.5615 5.50781C40.1836 5.50781 39.8936 5.78906 39.7617 6.20215C39.6035 6.71191 39.5859 7.37109 39.5859 7.95996C39.5859 8.3291 39.5947 8.68945 39.6123 9.05859L39.6211 9.33984L39.3398 9.34863C38.54 9.36621 37.7402 9.39258 36.9404 9.42773C36.1143 9.46289 35.6045 9.67383 35.6045 10.4121C35.6045 11.0537 36.0527 11.2471 36.7998 11.2471H37.002L39.3926 11.1328L39.6738 11.124V11.4141Z" fill="white"/>
<defs>
<clipPath id="clip0_192_237">
<rect width="15.5455" height="26.584" fill="white" transform="translate(14.7273 9.81818)"/>
</clipPath>
</defs>
</svg>
